<?xml version="1.0" encoding="utf-8"?>
<!-- Generator: Adobe Illustrator 18.1.1, SVG Export Plug-In . SVG Version: 6.00 Build 0)  -->
<svg version="1.1" id="Layer_1" xmlns="http://www.w3.org/2000/svg" xmlns:xlink="http://www.w3.org/1999/xlink" x="0px" y="0px"
	 width="126.8px" height="46.7px" viewBox="0 0 126.8 46.7" style="enable-background:new 0 0 126.8 46.7;" xml:space="preserve">
<g>
	<g>
		<g>
			<linearGradient id="SVGID_1_" gradientUnits="userSpaceOnUse" x1="-1.3246" y1="34.0355" x2="62.9946" y2="34.0355">
				<stop  offset="0" style="stop-color:#AEDEE4"/>
				<stop  offset="0.3478" style="stop-color:#C3E6EC"/>
				<stop  offset="1" style="stop-color:#F4FAFD"/>
			</linearGradient>
			<path style="fill:url(#SVGID_1_);" d="M35.5,33.4c-2.5-0.8-10.7-5.3-10.7-5.3l-3.2-2.2l-3.2-0.2l-1.6-1.5l-1.7-1.5l-3.3-1.3
				L8,22.3l-3.4,1.8L2,26.2L0.5,29c2.5,10,14.9,17.5,29.8,17.5c15.9,0,28.9-8.6,30.2-19.5C57.3,30.1,48.2,37.4,35.5,33.4z"/>
		</g>
		<g>
			<path style="fill:none;" d="M39,5.5c0.3,0,0.5,0.2,0.5,0.5c0,0.3-0.2,0.5-0.5,0.5c-0.3,0-0.5-0.2-0.5-0.5
				C38.5,5.7,38.7,5.5,39,5.5z M38.2,7.3c0.3,0,0.5,0.2,0.5,0.5c0,0.3-0.2,0.5-0.5,0.5c-0.3,0-0.5-0.2-0.5-0.5
				C37.7,7.5,37.9,7.3,38.2,7.3z M37.7,9.6c0.2,0,0.4,0.2,0.4,0.4c0,0.2-0.2,0.4-0.4,0.4c-0.2,0-0.4-0.2-0.4-0.4
				C37.4,9.8,37.5,9.6,37.7,9.6z"/>
			<path style="fill:none;" d="M41.8,6.2c0.1,0,0.2,0.1,0.2,0.2c0,0.1-0.1,0.2-0.2,0.2c-0.1,0-0.2-0.1-0.2-0.2
				C41.6,6.3,41.7,6.2,41.8,6.2z M41.4,7.1c0.2,0,0.4,0.2,0.4,0.4c0,0.2-0.2,0.4-0.4,0.4c-0.2,0-0.4-0.2-0.4-0.4
				C41,7.2,41.2,7.1,41.4,7.1z M41,8.6c0.3,0,0.5,0.2,0.5,0.5c0,0.3-0.2,0.5-0.5,0.5c-0.3,0-0.5-0.2-0.5-0.5
				C40.5,8.8,40.7,8.6,41,8.6z M40.2,10.3c0.2,0,0.3,0.1,0.3,0.3c0,0.2-0.1,0.3-0.3,0.3c-0.2,0-0.3-0.1-0.3-0.3
				C39.9,10.4,40.1,10.3,40.2,10.3z M39.7,11.4c0.1,0,0.2,0.1,0.2,0.2c0,0.1-0.1,0.2-0.2,0.2c-0.1,0-0.2-0.1-0.2-0.2
				C39.5,11.5,39.6,11.4,39.7,11.4z"/>
			<path style="fill:none;" d="M31.8,16.6c0-0.6,0.5-1.1,1.1-1.1c0.6,0,1.1,0.5,1.1,1.1c0,0.6-0.5,1.1-1.1,1.1
				C32.3,17.6,31.8,17.2,31.8,16.6z M33.3,20c-0.5,0-0.8-0.4-0.8-0.8s0.4-0.8,0.8-0.8c0.5,0,0.8,0.4,0.8,0.8S33.8,20,33.3,20z
				 M34.5,15.5c-0.4,0-0.8-0.3-0.8-0.8c0-0.4,0.3-0.8,0.8-0.8c0.4,0,0.8,0.3,0.8,0.8C35.3,15.2,34.9,15.5,34.5,15.5z M35.9,5
				c0.3,0,0.5,0.2,0.5,0.5c0,0.3-0.2,0.5-0.5,0.5c-0.3,0-0.5-0.2-0.5-0.5C35.4,5.2,35.6,5,35.9,5z M35.9,12.7c0,0.3-0.2,0.5-0.5,0.5
				c-0.3,0-0.5-0.2-0.5-0.5c0-0.3,0.2-0.5,0.5-0.5C35.6,12.2,35.9,12.4,35.9,12.7z"/>
			<circle style="fill:none;" cx="32.8" cy="16.5" r="0.4"/>
			<path style="fill:none;" d="M27,11.1l0.6,5.3l1.4-0.3c-0.1-4.6,2.1-6.6,2.1-6.6l0.8,0.8c-1.7,2.1-1.7,4.5-1.7,4.5
				c2.7-1,3.6-5.2,3.6-5.2c-1.2-0.8-2-2.5-2-2.5l0.8-0.9C32.8,7.4,34.1,8,34.1,8c0.1-1.3-0.2-2.9-0.5-3.8C32.8,4.1,32.1,4,31.3,4
				C30.7,9.4,27,11.1,27,11.1z M32.5,4.3c0.3,0,0.5,0.2,0.5,0.5c0,0.3-0.2,0.5-0.5,0.5c-0.3,0-0.5-0.2-0.5-0.5
				C32.1,4.5,32.3,4.3,32.5,4.3z"/>
			<path style="fill:none;" d="M18.9,22.5c0,0-1.1,0.1-2.4,0.4c0,0,1,0.7,1.8,2.1c0,0,5.1,0,8,3.5l0.5-2.7
				C26.7,25.8,22.4,26.2,18.9,22.5z"/>
			<path style="fill:none;" d="M43.5,14.9c-0.6,0-1.1-0.5-1.1-1.1c0-0.6,0.5-1.1,1.1-1.1c0.6,0,1.1,0.5,1.1,1.1
				C44.5,14.4,44.1,14.9,43.5,14.9z M44.2,10.6c-0.3,0-0.6-0.3-0.6-0.6c0-0.3,0.3-0.6,0.6-0.6c0.3,0,0.6,0.3,0.6,0.6
				C44.8,10.3,44.5,10.6,44.2,10.6z M45.8,9.1c-0.3,0-0.5-0.2-0.5-0.5c0-0.3,0.2-0.5,0.5-0.5c0.3,0,0.5,0.2,0.5,0.5
				C46.3,8.9,46.1,9.1,45.8,9.1z M39.3,15.2c0.7,0,1.2,0.5,1.2,1.2c0,0.7-0.5,1.2-1.2,1.2c-0.7,0-1.2-0.5-1.2-1.2
				C38.1,15.8,38.6,15.2,39.3,15.2z M37.2,17.6c0.4,0,0.8,0.3,0.8,0.8c0,0.4-0.3,0.8-0.8,0.8c-0.4,0-0.8-0.3-0.8-0.8
				C36.4,17.9,36.8,17.6,37.2,17.6z M36,20.5c0-0.3,0.2-0.5,0.5-0.5c0.3,0,0.5,0.2,0.5,0.5c0,0.3-0.2,0.5-0.5,0.5
				C36.2,21.1,36,20.8,36,20.5z M36.2,22.7c0-0.5,0.4-0.8,0.8-0.8c0.5,0,0.8,0.4,0.8,0.8c0,0.5-0.4,0.8-0.8,0.8
				C36.6,23.6,36.2,23.2,36.2,22.7z M37.9,27.7c-0.9,0-1.6-0.7-1.6-1.6c0-0.9,0.7-1.6,1.6-1.6c0.9,0,1.6,0.7,1.6,1.6
				C39.5,27,38.8,27.7,37.9,27.7z M40.7,25.8c-0.5,0-0.8-0.4-0.8-0.8c0-0.5,0.4-0.8,0.8-0.8c0.5,0,0.8,0.4,0.8,0.8
				C41.5,25.5,41.1,25.8,40.7,25.8z M43,20.7c0,1.5-1.2,2.7-2.7,2.7c-1.5,0-2.7-1.2-2.7-2.7c0-1.5,1.2-2.7,2.7-2.7
				C41.8,18,43,19.2,43,20.7z M45.8,24c-0.3,0-0.6-0.3-0.6-0.6c0-0.3,0.3-0.6,0.6-0.6s0.6,0.3,0.6,0.6C46.4,23.7,46.2,24,45.8,24z
				 M48,24.9c-0.5,0-0.8-0.4-0.8-0.8c0-0.5,0.4-0.8,0.8-0.8c0.5,0,0.8,0.4,0.8,0.8C48.8,24.6,48.4,24.9,48,24.9z M48.2,22.1
				c-1.2,0-2.1-0.9-2.1-2.1c0-1.2,0.9-2.1,2.1-2.1c1.2,0,2.1,0.9,2.1,2.1C50.3,21.2,49.3,22.1,48.2,22.1z M50.7,24.3
				c-0.5,0-0.9-0.4-0.9-0.9c0-0.5,0.4-0.9,0.9-0.9c0.5,0,0.9,0.4,0.9,0.9C51.6,23.9,51.2,24.3,50.7,24.3z M56.7,18.8
				c-0.5,0-0.9-0.4-0.9-0.9c0-0.5,0.4-0.9,0.9-0.9c0.5,0,0.9,0.4,0.9,0.9C57.6,18.4,57.2,18.8,56.7,18.8z M38.1,33.1
				c-0.4,0-0.7-0.3-0.7-0.7c0-0.4,0.3-0.7,0.7-0.7c0.4,0,0.7,0.3,0.7,0.7C38.8,32.8,38.5,33.1,38.1,33.1z M40.6,33.2
				c-0.7,0-1.3-0.6-1.3-1.3c0-0.7,0.6-1.3,1.3-1.3c0.7,0,1.3,0.6,1.3,1.3C41.9,32.6,41.3,33.2,40.6,33.2z M43.9,27.6
				c0-0.3,0.3-0.6,0.6-0.6c0.3,0,0.6,0.3,0.6,0.6c0,0.3-0.3,0.6-0.6,0.6C44.2,28.2,43.9,27.9,43.9,27.6z M46.3,32.7
				c-1.2,0-2.2-1-2.2-2.2s1-2.2,2.2-2.2c1.2,0,2.2,1,2.2,2.2S47.6,32.7,46.3,32.7z M51.9,30.6c-0.8,0-1.5-0.7-1.5-1.5
				c0-0.8,0.7-1.5,1.5-1.5c0.8,0,1.5,0.7,1.5,1.5C53.4,30,52.7,30.6,51.9,30.6z M56.7,27.1c-0.5,0-0.9-0.4-0.9-0.9
				c0-0.5,0.4-0.9,0.9-0.9c0.5,0,0.9,0.4,0.9,0.9C57.6,26.7,57.2,27.1,56.7,27.1z"/>
			<path style="fill:none;" d="M7.3,25l-3.1,5.2C4.2,30.3,2.4,25.5,7.3,25z M4.6,35.8l2.9-4.9C7.6,30.9,9.3,35.4,4.6,35.8z
				 M10.1,35.8l3.1,5.2C8.3,40.6,10.1,35.8,10.1,35.8z M17,33.8l4.6,4C21.6,37.8,16.6,38.7,17,33.8z M15.2,42.1l6.1-0.1
				C18.4,46,15.2,42.1,15.2,42.1z"/>
			<path style="fill:#B6A98A;" d="M40.9,43.7c-0.9-1-3.4-1.8-4.6-1.3c0,0,2.4-2,1.5-5.2c-0.9-3.2-1.4-5.8-1.4-5.8s1.7,0,5-2
				c0,0,1.1,0.8,1.4,4.1c0,0,0.8-0.1,1.2-0.5c0,0,0.2-2-1.6-4.5c0,0,1.2-0.9,1.7-2.6c0,0,1.8,1,3.6,1.1c0,0,0.9,0.6,1.5,5.1
				c0,0,0.6,0,1-0.2c0,0-0.3-3.6-1.3-5.1c0,0,1.8-0.2,2.7-0.8c0,0,2.6,1.5,3,3.7c0,0,0.8-0.4,0.9-0.8c0,0-0.7-2.2-2.7-3.5l0.8-0.9
				c-0.3-0.2-0.6-0.4-0.8-0.7c-0.7,0.7-4.2,3.9-8.5,0.8c0,0,0.8-3.1-0.1-6.6c0,0-0.2-0.1-0.7,0c-0.5,0-0.7,0.1-0.7,0.1
				c0.9,2.9,2.2,10.3-6.7,11.6c0,0-1.3-2.5-0.8-6.9c0,0-0.1-2.7,0.3-4.3c0.4-1.5,0.9-2.5,1.6-3.1c0.7-0.7,2.4-1.2,2.4-1.2
				s3.6,5.3,10.4,1.6l-0.7-0.8c0,0-5.8,2.9-8.9-1.5c0,0,0.4-0.3,0.6-0.6c0.3-0.4,0.4-0.7,0.4-0.7s2.7,0.4,4.5-0.5
				c0,0-0.1-0.3-0.2-0.6c-0.1-0.3-0.3-0.6-0.3-0.6c-0.7,0.5-1.7,0.7-3.1,0.3c0,0,0.9-1.1,1.3-4.6C43.4,6.1,43,6,42.6,5.8
				c-0.2,2.1-1.1,5.9-3.9,7.5l2.7-7.8c-0.3-0.1-0.7-0.2-1-0.3l-2.7,7.4c0,0-1.7-2.2,0.9-7.8c-0.3-0.1-0.7-0.1-1-0.2
				c-0.7,1.1-2.7,5.1-0.6,9.3c0,0-1.7,2.2-2.3,3.9c-0.5,1.5-0.5,4.2-0.5,4.2s-3.1-1.5-3.7-5.7c0,0,6.5-4,4.3-12.1
				c-0.4,0-0.8-0.1-1.2-0.1c0.3,0.9,0.7,2.5,0.5,3.8c0,0-1.3-0.6-1.5-1.7l-0.8,0.9c0,0,0.8,1.7,2,2.5c0,0-0.8,4.2-3.6,5.2
				c0,0,0-2.4,1.7-4.5l-0.8-0.8c0,0-2.1,2.1-2.1,6.6l-1.4,0.3L27,11.1c0,0,3.7-1.7,4.3-7.1c-0.3,0-0.7,0-1,0c0,0,0,0,0,0
				c-0.3,1.7-1.1,4.9-3.5,5.9l-0.3-1.6c0,0,1.8-0.7,2.2-4.2c-0.3,0-0.7,0-1,0.1c-0.2,1-0.7,2.7-1.3,2.6l-0.5-2.5
				c-0.4,0-0.7,0.1-1.1,0.1l0.9,6.7c0,0-2.7-1.6-2.3-6.5c-0.4,0.1-0.8,0.1-1.2,0.2c0,2,0.3,6.3,3.8,8.1c0,0,1.6,9.2,0.8,11.2
				c0,0-4,0.9-6-2.2c0.7-0.3,1.5-0.9,1.5-0.9s1.9,1.8,3.7,0.9c0,0,0-0.3,0-0.7c0-0.4-0.1-0.7-0.1-0.7s-1.5,1.2-2.6-0.3
				c0,0,2.7-2,1.9-4.4c0,0-0.3,0-0.6,0c-0.3,0-0.6,0-0.6,0s0.5,1.4-0.5,1.9c0,0-0.8,0.1-0.6-1.7l-1.2-0.2c0,0-0.4,2,0.8,3.2
				c0,0-0.6,1.1-2.1,1.6c0,0-0.6-1.8,0.4-3.9c0,0-0.3-0.2-0.5-0.3c-0.3-0.1-0.5-0.2-0.5-0.2s-1.7,2.4-0.6,4.8c0,0-2-0.4-4-3.7
				c0,0,3.5-0.1,5.8-3.3c0,0,1.9,1.3,3.8,0.4c0,0,0-0.3,0-0.6c0-0.3-0.1-0.5-0.1-0.5s-1.7,0.8-2.9-0.4l0.6-2.6c0,0-0.3-0.2-0.7-0.4
				c-0.4-0.2-0.7-0.3-0.7-0.3s0,1.8-1,3.2c0,0-0.8-0.5-1.2-1.5c0,0,2.4-3,1.6-6.3c-0.4,0.1-0.7,0.2-1.1,0.3c0.2,1.3,0.2,3.6-1.2,4.6
				c0,0-1-1.4-0.2-4.2c-0.4,0.1-0.8,0.3-1.2,0.4c-0.3,2-0.2,5.3,2.4,7.9c0,0-0.7,0.7-1.6,1.1c0,0-0.8-0.7-0.4-2.2l-1.2-0.2
				c0,0-0.4,1.6,0.4,3c0,0-0.6,0.2-1.4,0.2c0,0-1.1-2.9,1.3-5.8c0,0-0.3-0.2-0.6-0.4C15.3,9.5,15,9.4,15,9.4s-0.8,1.3-1.1,2.2
				c0,0-1.2-0.3-1.8-0.9c0,0,2-0.8,2.9-3.8c-0.6,0.2-1.1,0.5-1.6,0.7c-0.6,1.2-1.4,2.3-2.6,2.3l-0.6-0.6C9.9,9.5,9.6,9.8,9.2,10
				c1,1.1,2.4,2.2,4.3,2.7c0,0-0.6,2.2,0.1,4.4c0,0-1.6-1-4.1-1.1c0,0-0.1-0.3-0.2-0.5c0,0,1.1-0.6,1.5-2.4c0,0-0.2-0.2-0.4-0.4
				c-0.3-0.2-0.5-0.3-0.5-0.3s0,2.2-1.2,2.2c0,0-0.3-0.6-0.9-1c0,0,0.5-1.7,0.3-2.9c-0.3,0.3-0.7,0.5-1,0.8C7,12.4,7,13.1,6.8,13
				c-0.2-0.1-0.5-0.3-0.8-0.5c-0.3,0.2-0.5,0.5-0.7,0.7C6.4,13.9,8.1,15,8,16.2c0,0-1.4,0.2-3.2,0.9c0,0-0.5-0.9-1.5-1.6
				c-0.3,0.4-0.5,0.7-0.7,1.1c0.4,0.1,0.9,0.4,1,1c0,0-1.2,0.6-2.3,1.4c-0.3,0.7-0.6,1.4-0.8,2.1c1.4-1.4,4.7-4.3,9.3-3.7
				c0,0-1.2,0.4-1.9,2.3c0,0,0.1,0.1,0.4,0.1c0.4,0.1,0.7,0.1,0.7,0.1s1-2.3,2.4-2.2c0.7,0,2,0.7,2,0.7c-2.2,0.9-2.1,2.1-2.1,2.1
				s0.2,0.1,0.6,0.1c0.4,0,0.7,0.1,0.7,0.1s0.5-1.4,2-1.6c0,0,1,1.4,2.6,2.5L15,22.2c0,0-2.5-1.7-6.5-0.8c0,0-1-2.2-3.6-2.1l-0.6,1
				c0,0,2.2-0.1,2.8,1.5c0,0-1.7,0.6-2.4,1.4c0,0-1.2-2-2.5-1.8l-0.5,1.2C3.4,22.9,3.6,24,3.6,24c-0.5,0.4-1,0.9-1.5,1.4
				c0,0-0.6-0.6-2.2-0.5c0,0.1,0,0.2,0,0.3c0,0.3,0,0.6,0,0.9c0.6-0.1,1.4,0.3,1.4,0.3c-0.5,0.6-0.8,1.1-1.1,1.7
				c0.1,0.5,0.2,1.1,0.4,1.6c0.5-1.2,2.4-5.1,7.9-7c0,0-0.7,2.2-0.5,3.4c0,0,0.3,0,0.6,0c0.4-0.1,0.5-0.2,0.5-0.2s-0.1-2.6,1.3-3.5
				c0,0,0.9-0.3,3.2,0.3c0,0-1.7,0.8-2.5,2.7c0,0,0.2,0.1,0.5,0.2c0.4,0.1,0.7,0.2,0.7,0.2s1-1.8,2.7-2.3c0,0,1.2,0.9,1.5,1.7
				c0,0-1.5,0.2-3,1.3c0,0-6.1-0.7-9.9,6c0,0,0.2,0.1,0.6,0.1c0.3,0,0.7,0,0.7,0S7.1,27.8,12,28c0,0-0.7,0.7-1.4,2.1
				c0,0-1.3-0.5-2.4,0.6C8.1,30.7,8.3,32,8.3,32C9,30.8,10,31.2,10,31.2c-0.4,0.8-1.2,2.8-1.5,4.2c0,0,0.2,0,0.5,0
				c0.3,0,0.5,0,0.5,0s1.2-4.1,2.5-5.4c0,0,1,2.3,0.4,5.4c0,0.1,1,0.1,1,0c0.5-3.4-0.5-6.2-0.5-6.2c1.8-3,4.6-3.4,8.7-2.4
				c0,0-1.7,0.7-2.6,1.4c0,0-2.7-0.5-4.1,1.5c0,0,0.1,0.1,0.3,0.4c0.2,0.2,0.4,0.3,0.4,0.3c1.2-1.6,2.6-1.2,2.7-1.3
				c-1.9,1.6-2.9,3.4-3.1,5.8c0,0,0.2,0,0.5-0.1c0.3-0.1,0.5-0.2,0.5-0.2s0.2-1.6,1.1-2.9c0,0,1.2,0.5,1.5,1.8c0,0,0.2-0.2,0.4-0.5
				c0.2-0.3,0.3-0.5,0.3-0.5c-0.1-1.1-1.4-1.8-1.4-1.9c3.6-4.3,6-2.3,5.9-2.3c-1.8,1.4-2.3,3.6-2.3,3.6s0.3,0.2,0.6,0.2
				c0.5,0.1,0.8,0.1,0.8,0.1c0.4-1.7,1.7-2.9,1.8-2.8c0.6,0.7,1.8,1.1,1.5,6.7c-0.1,2.7-1.2,5.1-3.4,5.6c-2.5,0.6-1.8,1.9-3.9,2.3
				c-0.8,0.1-1.5-0.5-2.7-0.2c4.2,1.5,8.9,2.4,14,2.4c3.4,0,6.7-0.4,9.8-1.1c-0.7-0.3-1.5-1.4-3.7-1c-1.8,0.3-2.4-3-2.4-3l-0.5-18.6
				l0.7,0.8l2.2,12.9c0.5,1.2,1.8,3-0.8,6.2c-0.5,0.6,0.7,0.8,1.6,0.6c0.7-0.1,2.2,0.4,3.3,1.1c1.3,0.9,1.8-0.4,3-0.1
				c0.1,0,0.1,0,0.2,0.1c0.3-0.1,0.7-0.2,1-0.4C43.2,43.3,41.7,44.6,40.9,43.7z M26.2,28.6c-2.8-3.6-8-3.5-8-3.5
				c-0.8-1.4-1.8-2.1-1.8-2.1c1.3-0.3,2.4-0.4,2.4-0.4c3.5,3.7,7.8,3.3,7.8,3.3L26.2,28.6z M28.2,42c-0.7,1.4-3,1.6-3,1.6
				s-2.4,0-3.6,0.2c0,0,0,0-0.1,0c-0.2,0-0.2,0,0,0c0.7-0.1,3.6-0.7,5-2.1c1.9-1.8,1.7-24,1.7-24l0.8,1.8C29,19.5,28.9,40.6,28.2,42
				z M35.9,44.7c0,0-2.6,0.5-3.7-1.3c-1.1-1.7-0.4-22.6-0.4-22.6l0.9,1.3c0,0-0.6,18.8,0.7,20.9C34.5,44.8,35.9,44.7,35.9,44.7z"/>
			<path style="fill:#B6A98A;" d="M35.3,36.3c-0.8-3.6-0.6-5.1-0.8-5.3l0.7,10.5c0,0,1-0.6,1-2.6C36.1,37.6,35.3,36.5,35.3,36.3z"/>
			<path style="fill:#938D80;" d="M32.7,22.1l-0.9-1.3c0,0-0.8,20.8,0.4,22.6c1.1,1.7,3.7,1.3,3.7,1.3s-1.4,0.2-2.5-1.7
				C32.1,41,32.7,22.1,32.7,22.1z"/>
			<path style="fill:#938D80;" d="M21.5,43.8C21.3,43.8,21.3,43.8,21.5,43.8L21.5,43.8z"/>
			<path style="fill:#938D80;" d="M26.5,41.7c-1.4,1.4-4.3,1.9-5,2.1c0,0,0,0,0.1,0c1.2-0.2,3.6-0.2,3.6-0.2s2.3-0.2,3-1.6
				c0.7-1.4,0.8-22.5,0.8-22.5l-0.8-1.8C28.2,17.7,28.4,39.9,26.5,41.7z"/>
			<path style="fill:#D6DE23;" d="M53.7,24.4c0.4,0.3,0.9,0.4,1.4,0.4c1.5,0,2.7-1.2,2.7-2.7c0-1.5-1.2-2.7-2.7-2.7
				c-1.5,0-2.7,1.2-2.7,2.7c0,0.6,0.2,1.1,0.5,1.5C53.1,23.9,53.4,24.2,53.7,24.4z M55.1,20.5c0.9,0,1.7,0.7,1.7,1.7
				c0,0.9-0.7,1.7-1.7,1.7c-0.9,0-1.7-0.7-1.7-1.7C53.4,21.3,54.2,20.5,55.1,20.5z"/>
			<path style="fill:#D6DE23;" d="M48.2,17.9c-1.2,0-2.1,0.9-2.1,2.1c0,1.2,0.9,2.1,2.1,2.1c1.2,0,2.1-0.9,2.1-2.1
				C50.3,18.8,49.3,17.9,48.2,17.9z M48.3,21.2c-0.7,0-1.2-0.5-1.2-1.2c0-0.7,0.5-1.2,1.2-1.2c0.7,0,1.2,0.5,1.2,1.2
				C49.4,20.7,48.9,21.2,48.3,21.2z"/>
			<path style="fill:#D6DE23;" d="M40.3,18c-1.5,0-2.7,1.2-2.7,2.7c0,1.5,1.2,2.7,2.7,2.7c1.5,0,2.7-1.2,2.7-2.7
				C43,19.2,41.8,18,40.3,18z M40.4,22.5c-0.9,0-1.7-0.8-1.7-1.7c0-0.9,0.8-1.7,1.7-1.7c0.9,0,1.7,0.8,1.7,1.7
				C42.1,21.7,41.3,22.5,40.4,22.5z"/>
			<path style="fill:#D6DE23;" d="M46.3,28.2c-1.2,0-2.2,1-2.2,2.2s1,2.2,2.2,2.2c1.2,0,2.2-1,2.2-2.2S47.6,28.2,46.3,28.2z
				 M46.3,32c-0.8,0-1.5-0.7-1.5-1.5c0-0.8,0.7-1.5,1.5-1.5c0.8,0,1.5,0.7,1.5,1.5C47.8,31.3,47.2,32,46.3,32z"/>
			<path style="fill:#8BC53F;" d="M48.3,18.8c-0.7,0-1.2,0.5-1.2,1.2c0,0.7,0.5,1.2,1.2,1.2c0.7,0,1.2-0.5,1.2-1.2
				C49.4,19.3,48.9,18.8,48.3,18.8z M48.3,20.4c-0.2,0-0.4-0.2-0.4-0.4c0-0.2,0.2-0.4,0.4-0.4c0.2,0,0.4,0.2,0.4,0.4
				C48.7,20.2,48.6,20.4,48.3,20.4z"/>
			<path style="fill:#8BC53F;" d="M55.1,23.9c0.9,0,1.7-0.7,1.7-1.7c0-0.9-0.7-1.7-1.7-1.7c-0.9,0-1.7,0.7-1.7,1.7
				C53.4,23.1,54.2,23.9,55.1,23.9z M55.2,21.9c0.2,0,0.4,0.2,0.4,0.4c0,0.2-0.2,0.4-0.4,0.4c-0.2,0-0.4-0.2-0.4-0.4
				C54.8,22.1,55,21.9,55.2,21.9z"/>
			<path style="fill:#8BC53F;" d="M51.9,27.6c-0.8,0-1.5,0.7-1.5,1.5c0,0.8,0.7,1.5,1.5,1.5c0.8,0,1.5-0.7,1.5-1.5
				C53.4,28.3,52.7,27.6,51.9,27.6z M51.9,29.6c-0.2,0-0.4-0.2-0.4-0.4c0-0.2,0.2-0.4,0.4-0.4c0.2,0,0.4,0.2,0.4,0.4
				C52.3,29.4,52.1,29.6,51.9,29.6z"/>
			<path style="fill:#8BC53F;" d="M46.3,29c-0.8,0-1.5,0.7-1.5,1.5c0,0.8,0.7,1.5,1.5,1.5c0.8,0,1.5-0.7,1.5-1.5
				C47.8,29.6,47.2,29,46.3,29z M46.3,30.9c-0.2,0-0.4-0.2-0.4-0.4c0-0.2,0.2-0.4,0.4-0.4c0.2,0,0.4,0.2,0.4,0.4
				C46.7,30.7,46.6,30.9,46.3,30.9z"/>
			<path style="fill:#8BC53F;" d="M40.4,19.1c-0.9,0-1.7,0.8-1.7,1.7c0,0.9,0.8,1.7,1.7,1.7c0.9,0,1.7-0.8,1.7-1.7
				C42.1,19.8,41.3,19.1,40.4,19.1z M40.3,21.1c-0.2,0-0.4-0.2-0.4-0.4c0-0.2,0.2-0.4,0.4-0.4c0.2,0,0.4,0.2,0.4,0.4
				C40.7,21,40.5,21.1,40.3,21.1z"/>
			<path style="fill:#8BC53F;" d="M40.6,30.6c-0.7,0-1.3,0.6-1.3,1.3c0,0.7,0.6,1.3,1.3,1.3c0.7,0,1.3-0.6,1.3-1.3
				C41.9,31.2,41.3,30.6,40.6,30.6z M40.5,32.3c-0.2,0-0.4-0.2-0.4-0.4c0-0.2,0.2-0.4,0.4-0.4c0.2,0,0.4,0.2,0.4,0.4
				C41,32.2,40.8,32.3,40.5,32.3z"/>
			<path style="fill:#8BC53F;" d="M37.9,24.6c-0.9,0-1.6,0.7-1.6,1.6c0,0.9,0.7,1.6,1.6,1.6c0.9,0,1.6-0.7,1.6-1.6
				C39.5,25.3,38.8,24.6,37.9,24.6z M37.9,26.6c-0.2,0-0.4-0.2-0.4-0.4c0-0.2,0.2-0.4,0.4-0.4c0.2,0,0.4,0.2,0.4,0.4
				C38.3,26.4,38.1,26.6,37.9,26.6z"/>
			<circle style="fill:#BED630;" cx="33.3" cy="19.2" r="0.8"/>
			<circle style="fill:#BED630;" cx="34.5" cy="14.8" r="0.8"/>
			<circle style="fill:#BED630;" cx="35.3" cy="12.7" r="0.5"/>
			<circle style="fill:#8BC53F;" cx="37.2" cy="18.3" r="0.8"/>
			<path style="fill:#8BC53F;" d="M39.3,17.6c0.7,0,1.2-0.5,1.2-1.2c0-0.7-0.5-1.2-1.2-1.2c-0.7,0-1.2,0.5-1.2,1.2
				C38.1,17.1,38.6,17.6,39.3,17.6z M39.3,16c0.3,0,0.5,0.2,0.5,0.5c0,0.3-0.2,0.5-0.5,0.5c-0.3,0-0.5-0.2-0.5-0.5
				C38.9,16.2,39.1,16,39.3,16z"/>
			<circle style="fill:#8BC53F;" cx="37" cy="22.7" r="0.8"/>
			<circle style="fill:#8BC53F;" cx="36.5" cy="20.5" r="0.5"/>
			<circle style="fill:#8BC53F;" cx="38.1" cy="32.4" r="0.7"/>
			<circle style="fill:#8BC53F;" cx="50.7" cy="23.4" r="0.9"/>
			<circle style="fill:#8BC53F;" cx="48" cy="24.1" r="0.8"/>
			<circle style="fill:#8BC53F;" cx="39" cy="6" r="0.5"/>
			<circle style="fill:#8BC53F;" cx="38.2" cy="7.8" r="0.5"/>
			<circle style="fill:#8BC53F;" cx="37.7" cy="10" r="0.4"/>
			<circle style="fill:#8BC53F;" cx="39.7" cy="11.7" r="0.2"/>
			<circle style="fill:#8BC53F;" cx="40.2" cy="10.6" r="0.3"/>
			<circle style="fill:#8BC53F;" cx="41" cy="9.1" r="0.5"/>
			<circle style="fill:#8BC53F;" cx="41.4" cy="7.4" r="0.4"/>
			<circle style="fill:#8BC53F;" cx="41.8" cy="6.4" r="0.2"/>
			<circle style="fill:#8BC53F;" cx="40.7" cy="25" r="0.8"/>
			<circle style="fill:#8BC53F;" cx="43.5" cy="13.9" r="1.1"/>
			<circle style="fill:#BED630;" cx="44.2" cy="10" r="0.6"/>
			<path style="fill:#F6921E;" d="M21.6,37.8l-4.6-4C16.6,38.7,21.6,37.8,21.6,37.8z"/>
			<path style="fill:#F6921E;" d="M13.2,41l-3.1-5.2C10.1,35.8,8.3,40.6,13.2,41z"/>
			<path style="fill:#F6921E;" d="M4.6,35.8c4.7-0.4,2.9-4.9,2.9-4.9L4.6,35.8z"/>
			<path style="fill:#F6921E;" d="M21.3,42l-6.1,0.1C15.2,42.1,18.4,46,21.3,42z"/>
			<circle style="fill:#8BC53F;" cx="45.8" cy="23.3" r="0.6"/>
			<circle style="fill:#8BC53F;" cx="44.5" cy="27.6" r="0.6"/>
			<circle style="fill:#8BC53F;" cx="56.7" cy="26.2" r="0.9"/>
			<circle style="fill:#8BC53F;" cx="56.7" cy="17.9" r="0.9"/>
			<circle style="fill:#BED630;" cx="35.9" cy="5.4" r="0.5"/>
			<circle style="fill:#D6DE23;" cx="32.5" cy="4.7" r="0.5"/>
			<circle style="fill:#D6DE23;" cx="45.8" cy="8.6" r="0.5"/>
			<circle style="fill:#D6DE23;" cx="39.3" cy="16.4" r="0.5"/>
			<path style="fill:#F6921E;" d="M7.3,25c-4.9,0.5-3.1,5.2-3.1,5.2L7.3,25z"/>
			<circle style="fill:#F6921E;" cx="40.3" cy="20.7" r="0.4"/>
			<circle style="fill:#F6921E;" cx="55.2" cy="22.4" r="0.4"/>
			<circle style="fill:#F6921E;" cx="37.9" cy="26.2" r="0.4"/>
			<circle style="fill:#F6921E;" cx="48.3" cy="20" r="0.4"/>
			<path style="fill:#BED630;" d="M33.9,16.6c0-0.6-0.5-1.1-1.1-1.1c-0.6,0-1.1,0.5-1.1,1.1c0,0.6,0.5,1.1,1.1,1.1
				C33.4,17.6,33.9,17.2,33.9,16.6z M32.3,16.5c0-0.2,0.2-0.4,0.4-0.4c0.2,0,0.4,0.2,0.4,0.4c0,0.2-0.2,0.4-0.4,0.4
				C32.5,16.9,32.3,16.7,32.3,16.5z"/>
			<circle style="fill:#F6921E;" cx="40.5" cy="31.9" r="0.4"/>
			<circle style="fill:#F6921E;" cx="46.3" cy="30.5" r="0.4"/>
			<circle style="fill:#F6921E;" cx="51.9" cy="29.2" r="0.4"/>
			<path style="fill:#938D80;" d="M40.4,44.3c-1.1-0.8-2.7-1.3-3.3-1.1c-0.9,0.2-2.1,0-1.6-0.6c2.6-3.2,1.3-4.9,0.8-6.2l-2.2-12.9
				l-0.7-0.8L34,41.3c0,0,0.6,3.4,2.4,3c2.2-0.4,3,0.7,3.7,1c1.2-0.3,2.4-0.6,3.6-1c-0.1,0-0.1,0-0.2-0.1
				C42.3,43.9,41.7,45.2,40.4,44.3z M35.1,41.5L34.4,31c0.2,0.2,0.1,1.7,0.8,5.3c0,0.2,0.8,1.3,0.8,2.6
				C36.1,40.9,35.1,41.5,35.1,41.5z"/>
		</g>
		<g>
			<path style="fill:#FFF100;" d="M54.3,12.8l2.8-2.7l-2.9,0.7L55.1,8l-3,2.6l0.8-3c-0.3-0.1-0.7-0.1-1-0.1c-2.9,0-5.2,2.3-5.2,5.2
				c0,2.9,2.3,5.2,5.2,5.2c2.9,0,5.2-2.3,5.2-5.2c0-0.1,0-0.1,0-0.2L54.3,12.8z"/>
			<g>
				<path style="fill:#8BC53F;" d="M48.1,16.1c-0.9-0.9-1.4-2.2-1.4-3.5c0-2.9,2.3-5.2,5.2-5.2c0.2,0,0.5,0,0.7,0L48.1,16.1
					c0.9,1,2.3,1.7,3.8,1.7c2.9,0,5.2-2.3,5.2-5.2L48.1,16.1"/>
			</g>
			<path style="fill:#F6921E;" d="M51.9,14.7c2-1.8,2.1-3.5,2.1-3.5c-2.1,0-4.1,1.4-4.1,1.4l-1.8,3.5L51.9,14.7z"/>
			<path style="fill:#D6DE23;" d="M47.8,13.9l2.3-4.5C50.1,9.4,46.8,10.6,47.8,13.9z"/>
		</g>
		<path style="fill:#D6DE23;" d="M50.3,16.6l4.6-1.5C54.9,15,53.1,17.8,50.3,16.6z"/>
	</g>
	<g>
		<path style="fill:#B6A98A;" d="M67.1,32.5l3.4,9.6h0v-9.6h2.6v14h-3.2l-3.5-9.8h0v9.8h-2.6v-14H67.1z"/>
		<path style="fill:#B6A98A;" d="M81,35v1.9h-4.1v2.7h3.9v1.9h-3.9v3.1h4.3v1.9h-6.6V35H81z"/>
		<path style="fill:#B6A98A;" d="M88.7,35v1.9h-2.5v9.6h-2.3v-9.6h-2.5V35H88.7z"/>
		<path style="fill:#B6A98A;" d="M88.7,35h2.2l1.3,8.5h0l1.4-8.5h2.2l1.4,8.5h0l1.3-8.5h2.2l-2.1,11.5H96l-1.3-8.4h0l-1.3,8.4h-2.6
			L88.7,35z"/>
		<path style="fill:#B6A98A;" d="M105,34.8c3.5,0,3.9,2.5,3.9,6c0,3.5-0.4,6-3.9,6c-3.5,0-3.9-2.5-3.9-6
			C101.1,37.2,101.5,34.8,105,34.8z M105,45c1.4,0,1.6-1.2,1.6-4.3c0-3.1-0.2-4.3-1.6-4.3c-1.4,0-1.6,1.2-1.6,4.3
			C103.4,43.8,103.6,45,105,45z"/>
		<path style="fill:#B6A98A;" d="M109.9,35h4.3c1.9,0,3.1,1,3.1,3c0,1.5-0.6,2.6-1.9,2.8v0c1.6,0.2,1.8,1.1,1.9,3.5
			c0,1.2,0.1,1.8,0.5,2.1v0.1h-2.5c-0.2-0.3-0.3-0.8-0.3-1.2l-0.1-2.2c0-0.9-0.4-1.5-1.4-1.5h-1.2v4.9h-2.3V35z M112.3,40h1
			c1.1,0,1.7-0.5,1.7-1.7c0-1.1-0.6-1.6-1.6-1.6h-1.1V40z"/>
		<path style="fill:#B6A98A;" d="M120.9,35v4.6h0l2.9-4.6h2.5l-3.1,4.9l3.5,6.6h-2.6l-2.4-4.7l-0.9,1.3v3.4h-2.3V35H120.9z"/>
	</g>
	<g>
		<path style="fill:#AEDEE4;" d="M63.8,16.1h5.4c3.1,0,4.2,2.3,4.2,4.6c0,3.2-1.9,4.6-4.8,4.6h-1.6v6.1h-3.1V16.1z M66.9,23h1.4
			c1.2,0,2-0.7,2-2.3c0-1.5-0.6-2.3-2.1-2.3h-1.3V23z"/>
		<path style="fill:#AEDEE4;" d="M76.7,18.8h3.1l3.3,12.5h-2.6l-0.6-2.6h-3.3L76,31.3h-2.6L76.7,18.8z M77,26.6h2.5L78.3,21h0
			L77,26.6z"/>
		<path style="fill:#AEDEE4;" d="M83.7,18.8h4.7c2.1,0,3.3,1.1,3.3,3.2c0,1.7-0.7,2.8-2.1,3.1v0c1.7,0.2,2,1.2,2,3.8
			c0,1.3,0.1,2,0.6,2.2v0.1h-2.7c-0.2-0.4-0.3-0.8-0.3-1.3L89,27.6c0-1-0.5-1.6-1.5-1.6h-1.3v5.3h-2.5V18.8z M86.2,24.3h1.1
			c1.2,0,1.9-0.5,1.9-1.9c0-1.2-0.6-1.7-1.8-1.7h-1.2V24.3z"/>
		<path style="fill:#AEDEE4;" d="M100.1,18.8v2.1h-4.5v2.9h4.2v2.1h-4.2v3.4h4.6v2.1h-7.2V18.8H100.1z"/>
		<path style="fill:#AEDEE4;" d="M104.1,18.8l3.1,8.6h0v-8.6h2.3v12.5h-2.9l-3.1-8.8h0v8.8h-2.3V18.8H104.1z"/>
		<path style="fill:#AEDEE4;" d="M118.2,18.8v2.1h-2.7v10.4h-2.5V20.9h-2.7v-2.1H118.2z"/>
		<path style="fill:#AEDEE4;" d="M120.9,27.4v0.4c0,1.2,0.3,1.9,1.7,1.9c0.8,0,1.5-0.5,1.5-1.5c0-1.1-0.6-1.6-2.2-2.1
			c-2.2-0.8-3.3-1.7-3.3-3.8c0-2.4,1.5-3.7,3.9-3.7c2.2,0,3.9,1,3.9,3.4v0.4h-2.4c0-1.2-0.4-1.9-1.4-1.9c-1.1,0-1.4,0.7-1.4,1.5
			c0,0.8,0.2,1.2,1.3,1.7l1.9,0.8c1.9,0.8,2.4,1.8,2.4,3.3c0,2.6-1.6,3.8-4.3,3.8c-2.9,0-4-1.3-4-3.6v-0.5H120.9z"/>
	</g>
</g>
<g>
	<g>
		<path style="fill:#F6921E;" d="M76.9,6.8c2.5,0,2.8,1.7,2.8,4.2c0,2.5-0.3,4.2-2.8,4.2c-2.5,0-2.8-1.7-2.8-4.2
			C74.1,8.6,74.4,6.8,76.9,6.8z M76.9,14.1c1,0,1.1-0.8,1.1-3c0-2.2-0.2-3-1.1-3c-1,0-1.1,0.8-1.1,3C75.8,13.2,75.9,14.1,76.9,14.1z
			"/>
		<path style="fill:#F6921E;" d="M81.9,7v5.7c0,0.8,0.2,1.4,1,1.4s1-0.6,1-1.4V7h1.6v5.7c0,2.1-1.3,2.6-2.6,2.6s-2.6-0.4-2.6-2.6V7
			H81.9z"/>
		<path style="fill:#F6921E;" d="M86.3,7h3c1.3,0,2.2,0.7,2.2,2.1c0,1.1-0.4,1.8-1.4,2v0c1.1,0.1,1.3,0.8,1.3,2.5
			c0,0.9,0.1,1.3,0.4,1.5v0.1H90c-0.2-0.2-0.2-0.5-0.2-0.9l0-1.6c0-0.6-0.3-1-1-1h-0.9v3.4h-1.6V7z M87.9,10.5h0.7
			c0.8,0,1.2-0.3,1.2-1.2c0-0.8-0.4-1.1-1.1-1.1h-0.8V10.5z"/>
		<path style="fill:#F6921E;" d="M93.9,7h2l2.1,8.1h-1.7L96,13.4h-2.2l-0.4,1.7h-1.7L93.9,7z M94.1,12h1.6L95,8.4h0L94.1,12z"/>
		<path style="fill:#F6921E;" d="M102,9.4c0-0.6-0.3-1.4-0.9-1.4c-0.8,0-1.1,0.8-1.1,2.8c0,2,0.2,3.2,1.1,3.2c0.4,0,1-0.4,1-1.3
			v-0.8h-1.1v-1.2h2.6v4.4h-1.2v-0.7h0c-0.4,0.6-0.9,0.9-1.7,0.9c-2,0-2.4-1.5-2.4-4.3c0-2.7,0.6-4.1,2.7-4.1c1.8,0,2.5,0.9,2.5,2.6
			H102z"/>
		<path style="fill:#F6921E;" d="M109.1,7v1.3h-2.9v1.9h2.7v1.3h-2.7v2.2h3v1.3h-4.6V7H109.1z"/>
		<path style="fill:#F6921E;" d="M112.4,6.8c2.5,0,2.8,1.7,2.8,4.2c0,2.5-0.3,4.2-2.8,4.2c-2.5,0-2.8-1.7-2.8-4.2
			C109.6,8.6,109.9,6.8,112.4,6.8z M112.4,14.1c1,0,1.1-0.8,1.1-3c0-2.2-0.2-3-1.1-3c-1,0-1.1,0.8-1.1,3
			C111.2,13.2,111.4,14.1,112.4,14.1z"/>
		<path style="fill:#F6921E;" d="M117.4,7v5.7c0,0.8,0.2,1.4,1,1.4s1-0.6,1-1.4V7h1.6v5.7c0,2.1-1.3,2.6-2.6,2.6s-2.6-0.4-2.6-2.6V7
			H117.4z"/>
		<path style="fill:#F6921E;" d="M123.1,12.6v0.2c0,0.8,0.2,1.2,1.1,1.2c0.5,0,1-0.3,1-1c0-0.7-0.4-1-1.5-1.4
			c-1.5-0.5-2.1-1.1-2.1-2.5c0-1.6,1-2.4,2.5-2.4c1.5,0,2.5,0.6,2.5,2.2v0.2H125c0-0.8-0.3-1.2-0.9-1.2c-0.7,0-0.9,0.5-0.9,0.9
			c0,0.5,0.1,0.8,0.8,1.1l1.3,0.5c1.2,0.5,1.5,1.2,1.5,2.1c0,1.7-1,2.5-2.8,2.5c-1.9,0-2.6-0.9-2.6-2.4v-0.3H123.1z"/>
	</g>
	<path style="fill:#F6921E;" d="M70.3,5.3c0-2.1-0.4-3.1-1.8-3.1c-1.5,0-1.9,1.5-1.9,5.7c0,4.5,0.6,5.3,1.9,5.3
		c1.1,0,1.9-0.6,1.9-3.7h3c0,3.2-0.8,5.9-4.7,5.9c-4.5,0-5-3.2-5-7.7c0-4.5,0.6-7.7,5-7.7c4.3,0,4.6,3.1,4.6,5.3H70.3z"/>
</g>
</svg>
