<?xml version="1.0" encoding="utf-8"?>
<!-- Generator: Adobe Illustrator 18.1.1, SVG Export Plug-In . SVG Version: 6.00 Build 0)  -->
<svg version="1.1" id="Layer_0_xA0_Image_1_" xmlns="http://www.w3.org/2000/svg" xmlns:xlink="http://www.w3.org/1999/xlink"
	 x="0px" y="0px" width="235px" height="240px" viewBox="0 0 235 240" style="enable-background:new 0 0 235 240;"
	 xml:space="preserve">
<path d="M7.1,233.7c-0.5-5.5-0.3-10.2,2.8-14.9c23.6-35.9,46.8-71.9,70.2-107.9c21.2-32.6,42.5-65.2,63.9-97.7
	c0.9-1.4,3-2.8,4.5-2.8c26.8-0.2,53.6-0.2,80.4-0.2c0.6,0,1.2,0.3,1.8,0.4c1.4,6.4-0.7,11.4-4.3,16.7
	c-11.2,16.6-21.8,33.7-32.7,50.6c-9,14-18.1,27.9-27.1,41.8C142.9,156.5,119,193.2,95.3,230c-2,3.2-4.1,4.2-7.9,4.2
	c-26.1-0.3-52.2-0.1-78.4-0.1C8.5,234.1,8.1,233.9,7.1,233.7z"/>
<path d="M137.9,233.7c30.6-46.9,61.1-93.8,91.7-140.6c0.3,0.1,0.6,0.2,1,0.3c0,47.3,0,94.6,0,141.9c-30.5,0-61.2,0-91.9,0
	C138.5,234.7,138.2,234.2,137.9,233.7z"/>
<path d="M7.9,151.4c0-47.2,0-94.3,0-141.5c30.7,0,61.2,0,92.9,0c-31,48-61.3,95-91.6,142C8.8,151.7,8.3,151.6,7.9,151.4z"/>
</svg>
